<?xml version="1.0" encoding="UTF-8" standalone="no"?>
<!-- Generator: Adobe Illustrator 13.0.2, SVG Export Plug-In . SVG Version: 6.00 Build 14948)  -->

<svg
   xmlns:dc="http://purl.org/dc/elements/1.1/"
   xmlns:cc="http://creativecommons.org/ns#"
   xmlns:rdf="http://www.w3.org/1999/02/22-rdf-syntax-ns#"
   xmlns:svg="http://www.w3.org/2000/svg"
   xmlns="http://www.w3.org/2000/svg"
   xmlns:sodipodi="http://sodipodi.sourceforge.net/DTD/sodipodi-0.dtd"
   xmlns:inkscape="http://www.inkscape.org/namespaces/inkscape"
   version="1.1"
   id="Layer_1"
   x="0px"
   y="0px"
   width="48"
   height="48"
   viewBox="0 0 211.79314 211.78286"
   xml:space="preserve"
   inkscape:version="0.48.4 r9939"
   sodipodi:docname="slipway.svg"><metadata
     id="metadata3161"><rdf:RDF><cc:Work
         rdf:about=""><dc:format>image/svg+xml</dc:format><dc:type
           rdf:resource="http://purl.org/dc/dcmitype/StillImage" /><dc:title></dc:title></cc:Work></rdf:RDF></metadata><defs
     id="defs3159" /><sodipodi:namedview
     pagecolor="#ffffff"
     bordercolor="#666666"
     borderopacity="1"
     objecttolerance="10"
     gridtolerance="10"
     guidetolerance="10"
     inkscape:pageopacity="0"
     inkscape:pageshadow="2"
     inkscape:window-width="1916"
     inkscape:window-height="1041"
     id="namedview3157"
     showgrid="false"
     showborder="true"
     inkscape:zoom="7.4926889"
     inkscape:cx="24"
     inkscape:cy="12.305987"
     inkscape:window-x="0"
     inkscape:window-y="18"
     inkscape:window-maximized="0"
     inkscape:current-layer="g4441" /><g
     id="g3143"
     transform="translate(0,88.247142)"><g
       id="g4441"
       transform="matrix(1.9502702,0,0,1.9502702,-14.577476,-102.8239)"><rect
         y="9.6777697"
         x="9.680768"
         height="104.18446"
         width="104.18446"
         id="rect3163"
         style="fill:#1976d2;fill-opacity:1;fill-rule:evenodd;stroke:#ffffff;stroke-width:2.26243373000000014;stroke-linecap:butt;stroke-linejoin:miter;stroke-miterlimit:4;stroke-opacity:1;stroke-dasharray:none" /><g
         id="g4472"
         transform="matrix(0.8955574,0,0,0.8955574,6.4517332,6.0461785)"><path
           inkscape:connector-curvature="0"
           style="fill:#ffffff"
           d="m 25.851515,24.859 20.797,5.664 11.547,-8.008 4.015,0.977 -11.437,8.031 63.038975,17.281 -4.616,16.922 -63.266975,-17.234 c -24.516,-7.305 -20.047,-23.633 -20.047,-23.633"
           id="path3149" /><path
           inkscape:connector-curvature="0"
           style="fill:#ffffff"
           d="m 80.522515,68.141 c -0.07,-1.414 -0.344,-2.758 -0.805,-4.023 l 28.521975,7.93 -0.914,3.517 -26.802975,-7.424 z"
           id="path3151" /><path
           inkscape:connector-curvature="0"
           style="fill:#ffffff"
           d="m 54.617515,60.992 c 0.773,-1.125 1.688,-2.125 2.727,-3.008 L 9.7575145,44.852 v 3.781 L 54.617515,60.992 z"
           id="path3153" /><path
           inkscape:connector-curvature="0"
           style="fill:#ffffff"
           d="m 66.390515,73.516 c 2.562,0 4.633,-2.078 4.633,-4.641 0,-2.563 -2.069,-4.642 -4.633,-4.642 -2.57,0 -4.641,2.078 -4.641,4.642 0,2.563 2.07,4.641 4.641,4.641 z m 46.444975,28.414 c -2.258,0 -4.406,-0.508 -6.32,-1.391 -1.992,-0.898 -4.211,-1.438 -6.546999,-1.438 -2.319976,0 -4.554976,0.539 -6.515976,1.438 -1.945,0.883 -4.094,1.391 -6.352,1.391 -2.258,0 -4.406,-0.508 -6.345,-1.391 -1.977,-0.898 -4.202,-1.438 -6.522,-1.438 -2.328,0 -4.555,0.539 -6.539,1.438 -1.922,0.883 -4.094,1.391 -6.336,1.391 -2.25,0 -4.406,-0.508 -6.335,-1.391 -1.992,-0.898 -4.227,-1.438 -6.547,-1.438 -2.312,0 -4.547,0.539 -6.516,1.438 -1.93,0.883 -4.102,1.391 -6.344,1.391 -2.25,0 -4.406,-0.508 -6.352,-1.391 -1.961,-0.898 -4.195,-1.438 -6.516,-1.438 -2.321,0 -4.555,0.539 -6.531,1.438 -1.93,0.883 -4.102,1.391 -6.3360005,1.391 l -0.148,-37.789 52.0400005,14.352 c -3.585,-1.734 -6.079,-5.367 -6.079,-9.617 0,-5.905 4.781,-10.695 10.696,-10.695 5.891,0 10.688,4.79 10.688,10.695 0,5.906 -4.797,10.695 -10.688,10.695 -0.359,0 -0.711,-0.078 -1.056,-0.102 l 47.430975,13.062 0.07,9.399 z"
           id="path3155" /></g></g></g></svg>