<?xml version="1.0" encoding="UTF-8" standalone="no"?>
<svg
   xmlns:dc="http://purl.org/dc/elements/1.1/"
   xmlns:cc="http://creativecommons.org/ns#"
   xmlns:rdf="http://www.w3.org/1999/02/22-rdf-syntax-ns#"
   xmlns:svg="http://www.w3.org/2000/svg"
   xmlns="http://www.w3.org/2000/svg"
   xmlns:sodipodi="http://sodipodi.sourceforge.net/DTD/sodipodi-0.dtd"
   xmlns:inkscape="http://www.inkscape.org/namespaces/inkscape"
   width="48"
   height="48"
   viewBox="0 0 41.142857 41.142857"
   id="svg3032"
   version="1.1"
   inkscape:version="0.48.4 r9939"
   sodipodi:docname="gauge_28px.svg">
  <metadata
     id="metadata3042">
    <rdf:RDF>
      <cc:Work
         rdf:about="">
        <dc:format>image/svg+xml</dc:format>
        <dc:type
           rdf:resource="http://purl.org/dc/dcmitype/StillImage" />
        <dc:title></dc:title>
      </cc:Work>
    </rdf:RDF>
  </metadata>
  <defs
     id="defs3040" />
  <sodipodi:namedview
     pagecolor="#ffffff"
     bordercolor="#666666"
     borderopacity="1"
     objecttolerance="10"
     gridtolerance="10"
     guidetolerance="10"
     inkscape:pageopacity="0"
     inkscape:pageshadow="2"
     inkscape:window-width="1916"
     inkscape:window-height="1041"
     id="namedview3038"
     showgrid="false"
     inkscape:zoom="11.02329"
     inkscape:cx="3.4768256"
     inkscape:cy="14"
     inkscape:window-x="0"
     inkscape:window-y="18"
     inkscape:window-maximized="0"
     inkscape:current-layer="svg3032" />
  <g
     id="g3044"
     transform="matrix(1.6478693,0,0,1.6413268,0.8222974,-27.208314)">
    <path
       style="fill:#999;stroke:#ffffff"
       inkscape:connector-curvature="0"
       id="path3034"
       d="m 0,17.142857 24,0 0,24 -24,0 0,-24" />
    <path
       style="fill:#ffffff"
       inkscape:connector-curvature="0"
       id="path3036"
       d="m 17.3,35.142857 c 1.7,-1.5 2.7,-3.6 2.7,-6 a 8,8 0 0 0 -8,-8 8,8 0 0 0 -8,8 c 0,2.4 1,4.5 2.7,6 1.5,-1.3 3.3,-2 5.3,-2 2,0 3.9,0.7 5.3,2 m -5.3,-16 a 10,10 0 0 1 10,10 10,10 0 0 1 -10,10 10,10 0 0 1 -10,-10 10,10 0 0 1 10,-10 m -5,7 a 1,1 0 0 1 1,1 1,1 0 0 1 -1,1 1,1 0 0 1 -1,-1 1,1 0 0 1 1,-1 m 3,-3 a 1,1 0 0 1 1,1 1,1 0 0 1 -1,1 1,1 0 0 1 -1,-1 1,1 0 0 1 1,-1 m 7,3 a 1,1 0 0 1 1,1 1,1 0 0 1 -1,1 1,1 0 0 1 -1,-1 1,1 0 0 1 1,-1 m -2.6,-2.9 c 0.5,0.2 0.7,0.8 0.6,1.3 l -1.4,3.4 c 0.2,0.3 0.4,0.7 0.4,1.2 a 2,2 0 0 1 -2,2 2,2 0 0 1 -2,-2 c 0,-1 0.7,-1.9 1.7,-2 l 1.4,-3.3 c 0.2,-0.6 0.8,-0.8 1.3,-0.6 z" />
  </g>
</svg>
