<!-- Created with Inkscape (http://www.inkscape.org/) -->
<svg id="svg5194" xmlns:rdf="http://www.w3.org/1999/02/22-rdf-syntax-ns#" xmlns="http://www.w3.org/2000/svg" height="41.25" width="29" version="1.1" xmlns:cc="http://creativecommons.org/ns#" xmlns:dc="http://purl.org/dc/elements/1.1/">
<metadata id="metadata5199">
<rdf:RDF>
<cc:Work rdf:about="">
<dc:format>image/svg+xml</dc:format>
<dc:type rdf:resource="http://purl.org/dc/dcmitype/StillImage"/>
<dc:title/>
</cc:Work>
</rdf:RDF>
</metadata>
<g id="layer1" transform="translate(0,-1011.1122)">
<path id="path3053" d="m14.5,1011.9c-7.73,0-14,6.27-14,14,0,10.5,14,26,14,26s14-15.5,14-26c0-7.73-6.27-14-14-14z" stroke="#ffffff" fill="#000000"/>
<path id="path3036" d="m20.775,1033.1c2.0227-1.7777,3.2125-4.2664,3.2125-7.1107a9.5185,9.4808,0,0,0,-9.5185,-9.4807,9.5185,9.4808,0,0,0,-9.5185,9.4807c0,2.8443,1.1898,5.333,3.2125,7.1107,1.7847-1.5406,3.9264-2.3703,6.306-2.3703s4.6403,0.8297,6.306,2.3703m-6.306-18.962a11.898,11.851,0,0,1,11.898,11.851,11.898,11.851,0,0,1,-11.898,11.851,11.898,11.851,0,0,1,-11.898,-11.851,11.898,11.851,0,0,1,11.898,-11.851m-5.9491,8.2957a1.1898,1.1851,0,0,1,1.1898,1.1851,1.1898,1.1851,0,0,1,-1.1898,1.185,1.1898,1.1851,0,0,1,-1.1898,-1.185,1.1898,1.1851,0,0,1,1.1898,-1.1851m3.5695-3.5554a1.1898,1.1851,0,0,1,1.1898,1.1852,1.1898,1.1851,0,0,1,-1.1898,1.1851,1.1898,1.1851,0,0,1,-1.1898,-1.1851,1.1898,1.1851,0,0,1,1.1898,-1.1852m8.3287,3.5554a1.1898,1.1851,0,0,1,1.1898,1.1851,1.1898,1.1851,0,0,1,-1.1898,1.185,1.1898,1.1851,0,0,1,-1.1898,-1.185,1.1898,1.1851,0,0,1,1.1898,-1.1851m-3.0935-3.4368c0.59491,0.237,0.83287,0.9481,0.71389,1.5407l-1.6657,4.0292c0.23796,0.3556,0.47593,0.8296,0.47593,1.4221a2.3796,2.3702,0,0,1,-2.3796,2.3702,2.3796,2.3702,0,0,1,-2.3796,-2.3702c0-1.1851,0.83287-2.2517,2.0227-2.3701l1.6657-3.9108c0.23796-0.7111,0.95186-0.9481,1.5468-0.7111z" fill="#ffffff"/>
</g>
</svg>
