<?xml version="1.0" encoding="UTF-8" standalone="no"?>
<!-- Created with Inkscape (http://www.inkscape.org/) -->

<svg
   xmlns:dc="http://purl.org/dc/elements/1.1/"
   xmlns:cc="http://creativecommons.org/ns#"
   xmlns:rdf="http://www.w3.org/1999/02/22-rdf-syntax-ns#"
   xmlns:svg="http://www.w3.org/2000/svg"
   xmlns="http://www.w3.org/2000/svg"
   xmlns:sodipodi="http://sodipodi.sourceforge.net/DTD/sodipodi-0.dtd"
   xmlns:inkscape="http://www.inkscape.org/namespaces/inkscape"
   width="60"
   height="60"
   id="svg2"
   version="1.1"
   inkscape:version="0.48.4 r9939"
   sodipodi:docname="no_profile_image.svg">
  <defs
     id="defs4" />
  <sodipodi:namedview
     id="base"
     pagecolor="#ffffff"
     bordercolor="#666666"
     borderopacity="1.0"
     inkscape:pageopacity="0.0"
     inkscape:pageshadow="2"
     inkscape:zoom="3.959798"
     inkscape:cx="31.536746"
     inkscape:cy="-22.456081"
     inkscape:document-units="px"
     inkscape:current-layer="layer1"
     showgrid="false"
     fit-margin-top="0"
     fit-margin-left="0"
     fit-margin-right="0"
     fit-margin-bottom="0"
     inkscape:window-width="1916"
     inkscape:window-height="1041"
     inkscape:window-x="0"
     inkscape:window-y="18"
     inkscape:window-maximized="0" />
  <metadata
     id="metadata7">
    <rdf:RDF>
      <cc:Work
         rdf:about="">
        <dc:format>image/svg+xml</dc:format>
        <dc:type
           rdf:resource="http://purl.org/dc/dcmitype/StillImage" />
        <dc:title />
      </cc:Work>
    </rdf:RDF>
  </metadata>
  <g
     inkscape:label="Layer 1"
     inkscape:groupmode="layer"
     id="layer1"
     transform="translate(-123.25,-409.5)">
    <rect
       style="opacity:1;fill:#d3d3d3;fill-opacity:1;stroke:none"
       id="rect3008"
       width="60"
       height="60"
       x="123.25"
       y="409.5"
       rx="0.22615451"
       ry="0.67846346" />
    <g
       style="font-size:55.90990448000000157px;font-style:normal;font-weight:normal;line-height:125%;letter-spacing:0px;word-spacing:0px;fill:#333333;fill-opacity:1;stroke:none;font-family:Sans;stroke-opacity:1"
       id="text3823"
       transform="matrix(0.78154742,0,0,0.78154742,33.477854,96.009901)">
      <path
         d="m 175.21461,455.38067 c -4e-5,2.49598 -0.75924,4.46156 -2.27758,5.89675 -1.51843,1.45598 -3.53601,2.18398 -6.05275,2.18398 l -27.26855,0 c -2.51679,0 -4.53437,-0.728 -6.05275,-2.18398 -1.51839,-1.43519 -2.27758,-3.40077 -2.27758,-5.89675 0,-1.10238 0.0312,-2.17357 0.0936,-3.21357 0.0832,-1.06078 0.2288,-2.19437 0.4368,-3.40077 0.22879,-1.22718 0.50959,-2.36077 0.84239,-3.40077 0.33279,-1.03998 0.77999,-2.04877 1.34159,-3.02637 0.56159,-0.99838 1.20638,-1.84077 1.93438,-2.52718 0.72799,-0.70717 1.61198,-1.26877 2.65198,-1.68479 1.06078,-0.41597 2.22557,-0.62397 3.49436,-0.62399 0.18719,2e-5 0.62399,0.22882 1.31039,0.68639 0.68638,0.43682 1.45598,0.93602 2.30878,1.49759 0.87358,0.54081 1.99677,1.04001 3.36957,1.49759 1.39357,0.43681 2.78716,0.65521 4.18077,0.65519 1.39356,2e-5 2.77675,-0.21838 4.14956,-0.65519 1.39356,-0.45758 2.51675,-0.95678 3.36957,-1.49759 0.87356,-0.56157 1.65355,-1.06077 2.33998,-1.49759 0.68636,-0.45757 1.12316,-0.68637 1.31039,-0.68639 1.26875,2e-5 2.42314,0.20802 3.46317,0.62399 1.06075,0.41602 1.95514,0.97762 2.68317,1.68479 0.72796,0.68641 1.37275,1.5288 1.93439,2.52718 0.56155,0.9776 1.00874,1.98639 1.34158,3.02637 0.33276,1.04 0.60315,2.17359 0.8112,3.40077 0.22875,1.2064 0.37435,2.33999 0.43679,3.40077 0.0832,1.04 0.12476,2.11119 0.1248,3.21357 m -13.50948,-36.31648 c 2.35035,2.32962 3.52554,5.14799 3.52557,8.45513 -3e-5,3.3072 -1.17522,6.13597 -3.52557,8.48632 -2.32961,2.3296 -5.14798,3.49439 -8.45512,3.49437 -3.30719,2e-5 -6.13597,-1.16477 -8.48633,-3.49437 -2.32959,-2.35035 -3.49438,-5.17912 -3.49437,-8.48632 -1e-5,-3.30714 1.16478,-6.12551 3.49437,-8.45513 2.35036,-2.35033 5.17914,-3.52552 8.48633,-3.52557 3.30714,5e-5 6.12551,1.17524 8.45512,3.52557"
         id="path3828"
         inkscape:connector-curvature="0"
         style="stroke:none;stroke-opacity:1;fill:#333333;fill-opacity:1" />
    </g>
  </g>
</svg>
